<mxfile host="Electron" modified="2023-09-14T12:46:23.075Z" agent="Mozilla/5.0 (X11; Linux x86_64) AppleWebKit/537.36 (KHTML, like Gecko) draw.io/21.6.8 Chrome/114.0.5735.289 Electron/25.5.0 Safari/537.36" etag="1-D9kEijVR6slkVw0t4X" version="21.6.8" type="device">
  <diagram name="Pagina-1" id="yFerWzD4ov5QqRm9dovN">
    <mxGraphModel dx="2067" dy="629" grid="1" gridSize="10" guides="1" tooltips="1" connect="1" arrows="1" fold="1" page="1" pageScale="1" pageWidth="827" pageHeight="1169" math="0" shadow="0">
      <root>
        <mxCell id="0" />
        <mxCell id="1" parent="0" />
        <mxCell id="ullCernQIYtCWmE1diiv-1" value="Functie, component of hulpklasse" style="text;html=1;strokeColor=none;fillColor=none;align=left;verticalAlign=middle;whiteSpace=wrap;rounded=0;spacing=10;" vertex="1" parent="1">
          <mxGeometry x="160" y="40" width="120" height="60" as="geometry" />
        </mxCell>
        <mxCell id="ullCernQIYtCWmE1diiv-2" value="Componenten" style="text;html=1;strokeColor=none;fillColor=none;align=center;verticalAlign=middle;whiteSpace=wrap;rounded=0;spacing=10;fontStyle=1" vertex="1" parent="1">
          <mxGeometry width="280" height="40" as="geometry" />
        </mxCell>
        <mxCell id="ullCernQIYtCWmE1diiv-3" value="" style="rounded=0;whiteSpace=wrap;html=1;" vertex="1" parent="1">
          <mxGeometry y="40" width="120" height="60" as="geometry" />
        </mxCell>
        <mxCell id="ullCernQIYtCWmE1diiv-4" value="Connectoren" style="text;html=1;strokeColor=none;fillColor=none;align=center;verticalAlign=middle;whiteSpace=wrap;rounded=0;spacing=10;fontStyle=1" vertex="1" parent="1">
          <mxGeometry x="320" width="280" height="40" as="geometry" />
        </mxCell>
        <mxCell id="ullCernQIYtCWmE1diiv-5" value="" style="endArrow=classic;html=1;rounded=0;endFill=1;startArrow=none;startFill=0;strokeWidth=1;shape=flexArrow;endSize=5.153846153846154;endWidth=10;fillColor=#000000;strokeColor=none;fontSize=11;fillStyle=solid;width=5;" edge="1" parent="1">
          <mxGeometry relative="1" as="geometry">
            <mxPoint x="320" y="60" as="sourcePoint" />
            <mxPoint x="440" y="60" as="targetPoint" />
          </mxGeometry>
        </mxCell>
        <mxCell id="ullCernQIYtCWmE1diiv-6" value="HTTP request of respons" style="text;html=1;strokeColor=none;fillColor=none;align=left;verticalAlign=middle;whiteSpace=wrap;rounded=0;spacing=10;" vertex="1" parent="1">
          <mxGeometry x="480" y="40" width="140" height="40" as="geometry" />
        </mxCell>
      </root>
    </mxGraphModel>
  </diagram>
</mxfile>
